<?xml version="1.0" standalone="no"?>
<!DOCTYPE svg PUBLIC "-//W3C//DTD SVG 20010904//EN"
 "http://www.w3.org/TR/2001/REC-SVG-20010904/DTD/svg10.dtd">
<svg version="1.0" xmlns="http://www.w3.org/2000/svg"
 width="1816.000000pt" height="1816.000000pt" viewBox="0 0 1816.000000 1816.000000"
 preserveAspectRatio="xMidYMid meet">
<metadata>
Created by potrace 1.11, written by Peter Selinger 2001-2013
</metadata>
<g transform="translate(0.000000,1816.000000) scale(0.100000,-0.100000)"
fill="#000000" stroke="none">
<path d="M8719 17166 c-3 -3 -23 -8 -45 -12 -21 -3 -42 -8 -45 -10 -3 -2 -19
-6 -35 -9 -118 -21 -448 -105 -468 -119 -48 -31 -60 -70 -60 -207 l-1 -125
-98 37 c-205 78 -539 172 -762 214 -106 20 -306 52 -375 59 -122 13 -157 17
-186 21 -95 13 -275 19 -554 19 -365 1 -611 -11 -831 -40 -20 -2 -55 -6 -78
-9 -23 -2 -67 -9 -99 -14 -31 -5 -77 -13 -102 -16 -57 -8 -78 -12 -115 -19
-85 -17 -104 -21 -170 -36 -27 -6 -58 -13 -67 -15 -37 -8 -216 -57 -290 -80
-273 -85 -565 -225 -763 -364 -63 -45 -222 -180 -255 -217 -109 -124 -198
-246 -216 -296 -3 -10 -9 -18 -13 -18 -3 0 -49 43 -101 95 l-95 95 -102 -102
c-57 -57 -102 -106 -101 -110 2 -4 48 -52 102 -108 l99 -100 22 20 c12 11 25
17 30 13 4 -5 5 -3 2 3 -3 6 21 37 54 69 32 32 59 54 59 49 0 -6 -4 -14 -9
-20 -21 -23 -74 -224 -87 -329 -9 -76 -12 -297 -3 -310 3 -5 6 -17 6 -25 0
-13 19 -135 28 -180 2 -8 16 -55 30 -105 15 -49 28 -94 29 -100 4 -13 15 -44
26 -70 5 -11 19 -45 31 -75 11 -30 43 -99 70 -153 27 -54 46 -103 43 -109 -4
-6 -3 -8 3 -5 6 4 19 -14 29 -38 10 -25 21 -45 25 -45 4 0 9 -8 12 -17 3 -10
20 -40 36 -68 17 -27 37 -62 46 -77 25 -44 215 -330 251 -377 19 -24 31 -49
27 -55 -3 -6 -3 -8 2 -4 4 4 43 -41 87 -100 43 -59 84 -114 91 -122 7 -8 26
-33 42 -55 16 -22 32 -42 35 -45 17 -17 120 -150 116 -150 -3 0 5 -10 17 -23
12 -12 36 -40 54 -62 87 -110 225 -282 238 -298 8 -9 15 -19 15 -22 0 -2 10
-15 23 -28 35 -38 195 -246 257 -337 13 -19 28 -38 33 -41 4 -3 9 -15 10 -27
0 -11 5 -20 10 -19 12 2 120 -173 112 -181 -3 -3 -15 -7 -27 -9 -41 -6 -106
-46 -156 -94 -28 -27 -49 -49 -47 -49 2 0 -7 -22 -20 -48 -55 -109 -52 -248 5
-310 16 -16 18 -26 10 -39 -11 -20 -110 -234 -110 -238 0 -1 -25 -56 -56 -121
-31 -65 -60 -128 -64 -139 -6 -16 -30 -28 -97 -48 -91 -27 -281 -72 -368 -87
-27 -5 -62 -12 -78 -15 -74 -14 -184 -31 -247 -40 -25 -3 -63 -8 -85 -11 -22
-3 -51 -7 -65 -9 -14 -2 -45 -6 -70 -10 -25 -4 -58 -9 -75 -11 -16 -2 -41 -6
-55 -9 -14 -3 -41 -7 -60 -10 -31 -5 -215 -40 -263 -50 -9 -2 -79 -20 -155
-39 -1006 -255 -1687 -766 -1966 -1474 -34 -87 -78 -243 -91 -322 -3 -19 -7
-46 -10 -60 -15 -76 -24 -407 -12 -427 3 -4 8 -38 11 -75 12 -115 70 -337 118
-448 36 -83 102 -215 116 -232 14 -17 11 -18 -44 -19 -235 -2 -263 -9 -312
-79 l-27 -38 -166 -4 c-164 -3 -166 -3 -215 -33 -131 -81 -150 -255 -39 -356
59 -54 86 -61 237 -63 76 0 138 -3 138 -6 1 -3 2 -34 4 -70 5 -104 47 -163
133 -185 61 -16 113 -2 182 49 79 58 146 177 156 276 2 19 8 36 13 38 6 2 16
25 23 51 l12 47 106 0 106 0 44 -40 c25 -23 52 -48 61 -56 9 -8 38 -31 66 -50
27 -19 50 -38 52 -42 2 -4 7 -8 12 -8 11 0 114 -63 118 -72 2 -5 10 -8 17 -8
8 0 20 -7 29 -15 8 -9 18 -16 20 -16 10 0 92 -38 100 -46 4 -4 11 -8 14 -9 4
0 53 -22 110 -50 l103 -49 -48 -25 c-26 -14 -50 -28 -53 -31 -3 -3 -36 -23
-75 -44 -127 -70 -139 -77 -223 -126 -45 -27 -85 -49 -88 -49 -3 0 -18 -8 -32
-19 -15 -10 -47 -29 -72 -42 -272 -145 -369 -221 -417 -325 -37 -81 -36 -151
4 -237 42 -88 107 -148 247 -226 152 -85 191 -108 451 -256 138 -79 269 -153
293 -166 24 -13 51 -28 60 -34 29 -17 125 -72 162 -93 76 -42 487 -276 517
-294 30 -18 31 -21 21 -51 -6 -18 -18 -36 -27 -42 -24 -16 -103 -62 -141 -83
-19 -10 -105 -59 -190 -107 -85 -49 -180 -102 -210 -118 -149 -82 -152 -86
-147 -214 3 -54 7 -105 11 -114 7 -15 123 -85 389 -234 l137 -77 0 -101 c1
-157 9 -273 25 -367 2 -14 7 -43 10 -65 33 -231 147 -520 270 -685 182 -246
401 -380 710 -435 80 -15 362 -18 421 -5 21 5 59 11 84 14 124 16 405 94 523
145 26 11 47 19 47 17 0 -3 27 9 60 25 33 16 62 29 65 29 2 0 47 20 100 45 53
25 102 42 108 39 7 -4 8 -3 4 1 -7 8 131 79 264 136 l46 20 103 -60 c56 -34
103 -61 104 -61 9 0 175 -98 172 -101 -3 -2 5 -5 17 -6 12 -1 44 -6 71 -11 47
-9 157 -8 206 2 28 6 84 31 120 52 14 8 43 24 65 35 22 11 49 26 60 32 11 7
48 29 83 50 35 20 65 37 67 37 3 0 29 16 59 35 30 19 57 35 60 35 2 0 44 23
92 51 48 27 92 51 98 52 6 1 16 7 23 14 18 17 349 203 361 203 6 0 12 4 14 8
2 5 28 22 58 39 79 43 147 82 201 114 26 15 50 25 53 22 3 -4 6 -2 6 4 0 6 19
20 43 32 23 12 49 26 57 31 42 28 210 120 219 120 5 0 11 4 13 8 5 14 134 82
141 75 4 -3 7 -1 7 5 0 5 39 32 88 58 48 26 89 50 92 53 3 3 23 16 45 28 22
11 57 30 77 41 20 12 54 23 75 26 21 3 47 7 58 9 11 3 45 8 75 11 30 4 80 10
110 14 30 4 74 8 97 7 24 0 43 2 43 5 0 15 637 21 765 7 122 -13 149 -17 191
-22 56 -8 93 -14 129 -22 17 -4 33 -6 38 -5 4 1 7 0 7 -2 0 -4 -39 -28 -220
-137 -81 -48 -118 -85 -146 -144 l-24 -50 0 -906 c0 -849 1 -908 18 -927 21
-25 192 -129 224 -137 31 -8 51 3 528 295 429 263 486 298 664 404 143 85 184
120 216 182 l25 49 2 398 c0 219 3 400 5 402 5 5 90 -62 223 -174 94 -80 105
-90 250 -230 264 -256 537 -459 850 -633 135 -76 354 -180 480 -228 257 -100
483 -167 715 -214 155 -31 167 -33 265 -46 44 -6 91 -13 105 -15 160 -26 666
-26 870 0 19 2 58 7 85 10 28 4 57 8 65 10 8 2 31 7 50 10 134 21 403 93 530
142 266 103 523 249 694 393 233 196 384 381 515 631 32 60 61 106 66 102 4
-5 5 -2 1 5 -4 7 6 47 23 90 32 81 44 117 40 117 -1 0 3 10 10 23 7 13 14 31
16 40 2 9 12 53 23 97 19 76 31 135 37 180 2 11 7 47 11 80 11 76 11 402 1
475 -4 30 -12 78 -17 105 -5 28 -11 61 -14 75 -12 73 -67 258 -105 356 -11 29
-17 54 -14 58 4 3 1 6 -5 6 -20 0 -13 29 8 40 26 14 88 80 95 101 5 14 67 16
582 17 l576 1 45 28 c119 74 121 234 3 314 l-36 24 -582 3 c-474 2 -583 5
-583 16 0 7 -22 35 -50 62 -90 89 -167 117 -300 112 -49 -2 -86 -6 -84 -9 3
-6 -29 -18 -47 -19 -8 0 -99 137 -99 150 0 5 -4 10 -9 10 -6 0 -25 25 -43 55
-18 30 -36 55 -40 55 -5 0 -8 5 -8 12 0 6 -9 22 -21 34 l-21 22 62 36 c34 20
65 34 69 32 4 -3 7 290 7 652 l-1 656 -98 58 c-54 32 -129 75 -166 96 -37 20
-142 80 -233 132 l-166 94 96 54 c53 30 142 79 197 110 172 96 242 185 233
296 -10 120 -74 185 -303 311 -38 21 -92 51 -118 65 l-48 27 53 54 c30 30 85
81 123 114 39 33 76 66 83 73 20 18 27 16 98 -27 40 -24 72 -37 82 -34 33 12
133 95 141 117 4 11 7 56 6 98 -1 43 1 82 4 86 3 5 42 35 86 68 95 70 206 157
254 199 19 17 55 48 80 69 98 84 330 326 415 431 170 212 302 434 390 656 52
130 111 354 121 456 4 38 9 71 11 75 7 11 6 289 -1 358 -36 345 -181 700 -415
1015 -49 67 -75 97 -170 198 -36 38 -64 74 -62 78 1 5 -1 8 -6 7 -13 -5 -131
105 -125 115 3 6 2 7 -4 4 -5 -3 -26 8 -46 26 -19 18 -43 37 -54 44 -10 6 -17
16 -15 22 1 6 -1 10 -5 10 -18 -3 -30 2 -49 19 -31 28 -201 142 -212 142 -6 0
-12 4 -14 8 -6 15 -253 146 -393 208 -82 37 -259 104 -275 104 -5 0 -10 5 -10
11 0 5 -4 8 -9 5 -5 -4 -22 -1 -38 5 -15 6 -29 10 -30 10 -2 0 -33 9 -70 20
-124 37 -310 78 -393 86 -30 3 -59 8 -65 12 -29 18 -340 0 -484 -28 -29 -6
-57 -8 -62 -5 -5 3 -9 1 -9 -4 0 -5 -26 -15 -57 -22 -32 -8 -77 -22 -101 -32
-23 -9 -43 -16 -45 -15 -3 3 -83 -30 -119 -49 -15 -8 -30 -14 -33 -14 -8 2
-217 -103 -231 -115 -6 -5 -28 -19 -50 -30 -21 -11 -44 -26 -50 -34 -6 -8 -16
-11 -22 -7 -7 4 -12 3 -12 -3 0 -5 -17 -20 -37 -32 -21 -13 -40 -25 -43 -28
-19 -22 -72 -51 -82 -45 -6 4 -8 3 -5 -3 5 -8 -70 -71 -141 -118 -23 -15 -53
-38 -71 -55 -9 -9 -32 -27 -51 -42 -19 -14 -47 -36 -61 -49 -14 -13 -50 -44
-80 -69 -30 -24 -55 -48 -57 -52 -2 -5 -8 -8 -12 -8 -5 0 -20 -10 -32 -22 -13
-13 -55 -50 -93 -83 -37 -33 -77 -68 -87 -77 -10 -10 -18 -16 -18 -14 0 2 -15
-10 -33 -27 -85 -83 -282 -247 -296 -247 -6 0 -11 -4 -11 -9 0 -17 -180 -142
-193 -135 -6 4 -9 4 -5 -1 4 -4 -4 -17 -18 -28 -35 -27 -235 -127 -255 -127
-8 0 -19 -3 -23 -7 -3 -4 -14 -8 -24 -10 -9 -1 -37 -6 -62 -11 -25 -4 -67 -7
-95 -5 -65 4 -157 31 -150 43 3 5 0 7 -7 5 -8 -3 -22 1 -33 9 -20 14 -20 36
-21 1878 l-1 1863 -22 65 c-13 35 -35 85 -49 110 -44 75 -158 180 -247 227
-44 24 -111 60 -150 81 -38 21 -110 60 -160 87 -49 26 -94 51 -100 55 -5 4
-50 29 -100 55 -104 55 -139 75 -328 179 -76 42 -139 76 -141 76 -2 0 -52 27
-111 60 -59 33 -109 60 -110 60 -2 0 -34 17 -72 38 -37 22 -107 60 -155 85
-47 25 -103 56 -125 68 -21 11 -60 33 -88 49 -27 15 -79 43 -115 62 -36 20
-90 49 -120 66 -96 52 -173 94 -235 127 -33 18 -80 44 -105 57 -25 14 -81 44
-125 68 -44 23 -93 50 -110 60 -134 78 -171 93 -235 98 -36 2 -68 1 -71 -2z
m-3763 -5491 c-2 -69 -8 -104 -27 -150 -14 -33 -30 -59 -37 -58 -6 2 -9 -3 -6
-11 7 -17 -73 -105 -149 -163 -57 -44 -254 -149 -263 -140 -4 4 12 41 96 222
18 39 47 102 65 141 30 67 35 72 71 79 84 15 181 91 219 172 16 33 19 35 26
18 4 -11 6 -60 5 -110z m10839 -3585 c95 -54 188 -113 211 -137 71 -69 72
-153 5 -221 -34 -34 -82 -64 -291 -180 -25 -14 -76 -42 -114 -64 -69 -39 -92
-41 -126 -13 -14 11 -95 57 -162 92 -24 13 -26 16 -16 51 16 58 48 152 58 170
6 9 19 37 30 62 24 56 61 120 107 185 55 77 117 154 124 152 3 -1 81 -45 174
-97z m-15309 -578 c5 -43 26 -83 63 -118 l30 -28 -35 -40 c-19 -22 -43 -61
-55 -86 l-21 -47 -142 1 c-135 1 -144 3 -188 29 -77 45 -107 133 -73 214 40
95 86 114 274 110 l144 -2 3 -33z m431 -184 c-3 -8 -6 -5 -6 6 -1 11 2 17 5
13 3 -3 4 -12 1 -19z m1147 -497 c3 -5 16 -11 28 -14 13 -3 55 -17 93 -32 39
-14 106 -38 150 -52 44 -14 85 -28 90 -31 6 -4 19 -8 30 -9 11 -2 29 -7 40
-12 16 -7 121 -40 145 -46 3 -1 25 -7 50 -14 64 -19 70 -20 75 -21 14 -3 196
-70 214 -79 11 -6 31 -16 44 -23 12 -6 33 -17 47 -25 40 -20 82 -61 75 -72 -3
-6 0 -9 8 -6 8 4 21 -12 38 -47 20 -45 24 -67 23 -148 -1 -83 -6 -110 -41
-215 -39 -115 -144 -352 -189 -425 -36 -59 -189 -380 -225 -470 -18 -47 -36
-88 -39 -93 -3 -4 -94 43 -201 104 -107 61 -219 125 -249 141 -30 17 -59 34
-65 38 -5 4 -35 21 -65 37 -30 17 -233 131 -450 255 -217 124 -422 240 -455
258 -182 101 -249 177 -247 282 2 97 60 167 212 253 36 21 81 47 100 58 19 11
55 31 80 45 25 13 91 51 147 83 57 33 107 59 113 59 5 0 10 4 10 8 0 12 50 33
61 26 5 -3 8 -1 7 5 -2 7 31 30 72 52 41 22 80 45 87 50 7 6 18 7 24 3 7 -4 9
-3 6 3 -3 5 24 26 61 46 70 38 87 43 96 28z m14563 -1571 c51 -12 126 -56 118
-70 -3 -5 0 -7 8 -4 8 3 21 -6 31 -21 l17 -26 -113 1 c-108 1 -135 -1 -179
-15 -11 -4 -19 -2 -19 4 0 6 -15 33 -34 60 -34 48 -34 49 -13 59 45 22 118 26
184 12z m223 -215 c26 -78 8 -214 -28 -216 -18 -1 -139 -1 -160 0 -7 1 -10 6
-7 11 3 6 2 10 -3 10 -4 0 -18 21 -30 48 -12 26 -37 74 -56 107 -20 35 -30 62
-25 66 6 3 75 7 154 8 l143 2 12 -36z m1180 20 c37 -19 70 -70 70 -108 0 -43
-26 -91 -62 -112 -31 -18 -60 -19 -578 -18 l-545 0 4 39 c8 66 6 158 -3 186
l-8 27 546 1 c478 0 550 -2 576 -15z m-1237 -309 c-5 -8 -22 -26 -40 -40 l-32
-27 -7 25 c-3 14 -10 26 -15 26 -5 0 -9 6 -9 13 0 10 17 14 55 15 43 0 53 -2
48 -12z"/>
<path d="M2483 6614 c-18 -8 -33 -11 -33 -7 0 5 -4 3 -8 -3 -6 -10 -135 -74
-148 -74 -2 0 -36 -16 -75 -35 -39 -19 -77 -35 -85 -35 -12 0 -20 -27 -15 -54
1 -5 2 -98 3 -207 l0 -199 67 -37 c36 -20 82 -45 101 -56 19 -11 75 -43 123
-70 l88 -49 122 55 c67 30 159 72 205 93 l82 37 0 54 c1 29 1 91 1 138 0 47 0
125 -1 173 l0 88 -52 27 c-29 16 -75 41 -103 57 -27 17 -57 33 -65 37 -8 3
-17 9 -20 12 -11 13 -129 71 -142 70 -7 0 -28 -7 -45 -15z"/>
<path d="M15276 15406 c-151 -91 -87 -322 89 -319 126 2 208 140 150 253 -43
82 -159 115 -239 66z"/>
<path d="M1480 14633 c-124 -20 -246 -121 -297 -244 -28 -69 -24 -208 9 -279
72 -158 247 -251 412 -219 183 35 305 179 308 367 3 199 -149 362 -352 375
-30 2 -66 2 -80 0z m176 -84 c71 -27 142 -96 171 -168 33 -79 28 -197 -12
-270 -79 -144 -262 -206 -405 -138 -30 15 -68 38 -83 52 -178 167 -110 464
123 536 51 15 148 9 206 -12z"/>
<path d="M1498 14334 c-64 -33 -56 -129 12 -153 69 -24 135 46 104 110 -25 51
-70 67 -116 43z"/>
<path d="M14284 13838 c-52 -14 -69 -67 -35 -109 19 -24 21 -24 233 -25 118 0
220 -4 228 -9 7 -5 11 -4 8 1 -4 5 197 9 490 9 l496 0 7 -34 c8 -41 35 -69 74
-79 23 -6 836 -8 978 -3 42 2 87 53 87 100 0 20 -7 47 -16 59 -29 42 -60 50
-204 48 -128 -1 -136 0 -163 23 l-29 24 -1064 1 c-585 1 -1076 -2 -1090 -6z"/>
<path d="M1142 13678 c-37 -10 -72 -58 -72 -98 0 -40 35 -88 72 -98 18 -4 252
-8 520 -8 l486 1 26 24 c53 49 49 123 -7 165 -28 21 -37 21 -510 22 -265 0
-497 -4 -515 -8z"/>
<path d="M1750 2210 c-171 -23 -249 -217 -143 -357 30 -39 115 -83 161 -83
128 0 226 98 225 225 0 134 -111 233 -243 215z"/>
<path d="M3125 2085 c-71 -40 -144 -80 -161 -88 -17 -8 -33 -23 -35 -33 -3
-11 -4 -102 -4 -204 l0 -184 180 -83 c99 -45 183 -83 186 -83 5 0 326 177 338
186 3 3 4 382 1 399 -1 6 -2 14 -1 18 1 5 -3 6 -8 3 -14 -9 -61 15 -54 27 3 6
1 7 -5 3 -7 -4 -29 0 -49 9 -21 10 -47 21 -58 26 -11 5 -55 24 -99 44 -43 19
-84 35 -90 35 -6 0 -69 -34 -141 -75z"/>
<path d="M6545 1702 c-75 -2 -93 -6 -112 -24 -29 -27 -30 -77 -4 -109 19 -23
24 -24 172 -25 120 -1 155 -4 160 -15 19 -43 29 -56 55 -74 29 -19 45 -20 504
-19 261 1 485 2 497 3 13 1 37 14 55 30 25 22 32 36 32 67 0 48 -28 90 -69
103 -17 5 -149 9 -298 9 l-268 -1 -28 27 -28 27 -289 2 c-159 1 -329 1 -379
-1z"/>
<path d="M14852 1173 c-4 -1 -19 -4 -34 -7 -58 -13 -90 -92 -55 -137 30 -39
22 -39 1132 -39 1162 0 1117 -2 1142 52 20 46 -9 113 -56 125 -21 5 -2104 12
-2129 6z m2132 -59 c9 -8 16 -24 16 -33 0 -47 35 -46 -1107 -46 -1158 0 -1107
-2 -1099 49 7 47 -28 46 1107 46 957 0 1069 -2 1083 -16z"/>
</g>
</svg>
